<svg xmlns="http://www.w3.org/2000/svg" viewBox="0 0 32 40" x="0px" y="0px"><title>136-Bookmark</title><g data-name="136-Bookmark"><path d="M28,2H21V4h6V30H5V4H7V2H4A1,1,0,0,0,3,3V31a1,1,0,0,0,1,1H28a1,1,0,0,0,1-1V3A1,1,0,0,0,28,2Z"/><path d="M9.67,20.94a1,1,0,0,0,1.11-.32l3.22-4,3.22,4A1,1,0,0,0,18,21a1,1,0,0,0,.33-.06A1,1,0,0,0,19,20V1a1,1,0,0,0-1-1H10A1,1,0,0,0,9,1V20A1,1,0,0,0,9.67,20.94ZM11,2h6V17.15l-2.22-2.77a1,1,0,0,0-1.56,0L11,17.15Z"/></g><text x="0" y="47" fill="#000000" font-size="5px" font-weight="bold" font-family="'Helvetica Neue', Helvetica, Arial-Unicode, Arial, Sans-serif">Created by Loudoun Design Co.</text><text x="0" y="52" fill="#000000" font-size="5px" font-weight="bold" font-family="'Helvetica Neue', Helvetica, Arial-Unicode, Arial, Sans-serif">from the Noun Project</text></svg>