<svg xmlns="http://www.w3.org/2000/svg" xmlns:xlink="http://www.w3.org/1999/xlink" xml:space="preserve" version="1.0" style="shape-rendering:geometricPrecision;text-rendering:geometricPrecision;image-rendering:optimizeQuality;" viewBox="0 0 8200 9115" x="0px" y="0px" fill-rule="evenodd" clip-rule="evenodd"><defs><style type="text/css">
   
    .fil0 {fill:black;fill-rule:nonzero}
   
  </style></defs><g><g><path class="fil0" d="M4100 3834c1151,0 2216,616 2792,1612l68 117 -68 117c-577,997 -1640,1612 -2792,1612 -1152,0 -2215,-615 -2792,-1612l-68 -117 68 -117c576,-996 1641,-1612 2792,-1612zm0 467c-940,0 -1808,473 -2318,1262 510,788 1378,1262 2318,1262 940,0 1808,-473 2318,-1262 -510,-789 -1378,-1262 -2318,-1262z"/><path class="fil0" d="M4100 1023c754,0 1366,612 1366,1366 0,755 -612,1367 -1366,1367 -754,0 -1366,-612 -1366,-1367 0,-754 612,-1366 1366,-1366zm0 431c-517,0 -936,419 -936,935 0,517 419,936 936,936 517,0 936,-419 936,-936 0,-516 -419,-935 -936,-935z"/><path class="fil0" d="M144 5177c-95,-348 -144,-716 -144,-1077 0,-2264 1836,-4100 4100,-4100 2264,0 4100,1836 4100,4100 0,361 -49,729 -144,1077l-450 -122c86,-315 127,-628 127,-955 0,-2007 -1627,-3633 -3633,-3633 -2006,0 -3633,1626 -3633,3633 0,327 41,640 127,955l-450 122z"/></g></g><text x="0" y="7307" fill="#000000" font-size="5px" font-weight="bold" font-family="'Helvetica Neue', Helvetica, Arial-Unicode, Arial, Sans-serif">Created by allex</text><text x="0" y="7312" fill="#000000" font-size="5px" font-weight="bold" font-family="'Helvetica Neue', Helvetica, Arial-Unicode, Arial, Sans-serif">from the Noun Project</text></svg>