<svg xmlns:dc="http://purl.org/dc/elements/1.1/" xmlns:cc="http://creativecommons.org/ns#" xmlns:rdf="http://www.w3.org/1999/02/22-rdf-syntax-ns#" xmlns:svg="http://www.w3.org/2000/svg" xmlns="http://www.w3.org/2000/svg" xmlns:sodipodi="http://sodipodi.sourceforge.net/DTD/sodipodi-0.dtd" xmlns:inkscape="http://www.inkscape.org/namespaces/inkscape" version="1.1" x="0px" y="0px" viewBox="0 0 100 125"><g transform="translate(0,-952.36218)"><path style="text-indent:0;text-transform:none;direction:ltr;block-progression:tb;baseline-shift:baseline;color:#000000;enable-background:accumulate;" d="m 23.500003,954.86236 c -2.99905,0 -5.65322,1.4036 -7.625,3.3746 -1.97178,1.9709 -3.375,4.6234 -3.375,7.624 l 0,61.99194 c -6.1637503,0.2481 -10.9102908,5.6896 -11.0000008,10.9985 0,6.3589 4.6567105,10.6849 9.5000008,10.9674 19.44319,0.074 39.01652,0.031 58.5,0.031 3.66667,0 7.01937,-1.2797 9.375,-3.6245 2.35563,-2.3448 3.625,-5.6694 3.625,-9.3113 l 0,-66.05394 c 5.33333,0 10.66667,0 15.999995,0 0,-6.9989 -0.52513,-10.1608 -3.375,-13.1233 -2.198215,-2.1979 -5.100485,-2.8692 -7.593745,-2.8746 -22.29987,0 -44.94446,0 -64.03125,2e-4 z m 0,5.9992 54.1875,0 c -1.27402,3.247 -1.1875,6.6179 -1.1875,9.9987 l 0,66.05394 c 0,2.2948 -0.73062,3.9227 -1.875,5.0618 -1.14438,1.1392 -2.79166,1.8748 -5.125,1.8748 -1.14685,0 -4,-1.4594 -4,-4.9994 0,-3.54 2.85309,-4.9993 4,-4.9993 1.55665,-0.022 2.95787,-1.443 2.95787,-2.9996 0,-1.5566 -1.40122,-2.9776 -2.95787,-2.9996 l -51,0 0,-61.99194 c 0,-1.0027 0.59678,-2.3782 1.625,-3.4058 1.02822,-1.0278 2.37405,-1.5936 3.375,-1.5936 z m 64,0 c 2.91682,0.044 4.04941,1.6558 4.59375,3.9995 l -9.21875,0 c 0.49097,-2.7016 2.30732,-3.9812 4.625,-3.9995 z m -59.3125,7.999 c -1.57098,0.081 -2.92609,1.5851 -2.84427,3.1559 0.0818,1.5707 1.58581,2.9254 3.15677,2.8433 l 38,0 c 1.58494,0.022 3.04273,-1.4147 3.04273,-2.9996 0,-1.5849 -1.45779,-3.022 -3.04273,-2.9996 -12.76165,0 -25.57475,0 -38.3125,0 z m 0,13.9982 c -1.57098,0.081 -2.92609,1.5851 -2.84427,3.1558 0.0818,1.5707 1.58581,2.9255 3.15677,2.8434 l 38,0 c 1.58494,0.022 3.04273,-1.4147 3.04273,-2.9996 0,-1.5849 -1.45779,-3.022 -3.04273,-2.9996 -12.76165,0 -25.57475,0 -38.3125,0 z m 0,13.9981 c -1.57098,0.081 -2.92609,1.5851 -2.84427,3.15594 0.0818,1.5707 1.58581,2.9254 3.15677,2.8433 l 38,0 c 1.58494,0.022 3.04273,-1.4147 3.04273,-2.99964 0,-1.5849 -1.45779,-3.022 -3.04273,-2.9996 -12.76165,0 -25.57475,0 -38.3125,0 z m 0,13.99824 c -1.57098,0.081 -2.92609,1.5851 -2.84427,3.1559 0.0818,1.5707 1.58581,2.9254 3.15677,2.8433 l 38,0 c 1.58494,0.022 3.04273,-1.4147 3.04273,-2.9996 0,-1.5849 -1.45779,-3.022 -3.04273,-2.9996 -12.76165,0 -25.57475,0 -38.3125,0 z m -16.6875,22.997 49.1875,0 c -0.69616,1.4704 -1.1875,3.1129 -1.1875,4.9993 0,1.8622 0.4139,3.542 1.09375,4.9994 l -49.09375,0 c -1.08714,0 -4.0000002,-1.5787 -4.0000002,-4.9994 0,-2.9996 2,-4.9993 4.0000002,-4.9993 z" fill="#000000" fill-opacity="1" stroke="none" marker="none" visibility="visible" display="inline" overflow="visible"/></g><text x="0" y="115" fill="#000000" font-size="5px" font-weight="bold" font-family="'Helvetica Neue', Helvetica, Arial-Unicode, Arial, Sans-serif">Created by zidney</text><text x="0" y="120" fill="#000000" font-size="5px" font-weight="bold" font-family="'Helvetica Neue', Helvetica, Arial-Unicode, Arial, Sans-serif">from the Noun Project</text></svg>